<?xml version="1.0" encoding="utf-8"?>
<!-- Svg Vector Icons : http://www.onlinewebfonts.com/icon -->
<!DOCTYPE svg PUBLIC "-//W3C//DTD SVG 1.1//EN" "http://www.w3.org/Graphics/SVG/1.1/DTD/svg11.dtd">
<svg version="1.1" xmlns="http://www.w3.org/2000/svg" xmlns:xlink="http://www.w3.org/1999/xlink" x="0px" y="0px" viewBox="0 0 256 256" enable-background="new 0 0 256 256" xml:space="preserve">
<metadata> Svg Vector Icons : http://www.onlinewebfonts.com/icon </metadata>
<g><g><g><g><path fill="#000000" d="M187,113.7V51.2L145.8,10H10v236h177v-0.4c33.2-3.7,59-31.8,59-65.9C246,145.5,220.2,117.4,187,113.7z M142.7,27.8l26.5,26.5h-26.5V27.8z M24.8,231.3V24.7H128V69h44.3v44.7c-33.2,3.7-59,31.8-59,65.9c0,20.9,9.7,39.5,24.7,51.6H24.8L24.8,231.3z M179.6,230.4c-28-0.1-50.7-22.7-50.8-50.8c0.1-28,22.8-50.7,50.8-50.8c28,0.1,50.7,22.7,50.8,50.8C230.3,207.6,207.6,230.3,179.6,230.4z"/><path fill="#000000" d="M187 172.3L187 142.8 172.3 142.8 172.3 172.3 142.8 172.3 142.8 187 172.3 187 172.3 216.5 187 216.5 187 187 216.5 187 216.5 172.3 z"/></g></g><g></g><g></g><g></g><g></g><g></g><g></g><g></g><g></g><g></g><g></g><g></g><g></g><g></g><g></g><g></g></g></g>
</svg>