<svg xmlns="http://www.w3.org/2000/svg" xmlns:xlink="http://www.w3.org/1999/xlink" xmlns:serif="http://www.serif.com/" viewBox="0 0 32 40" version="1.1" xml:space="preserve" style="" x="0px" y="0px" fill-rule="evenodd" clip-rule="evenodd" stroke-linejoin="round" stroke-miterlimit="2"><g transform="matrix(1,0,0,1,-208,-208)"><g><path d="M233.026,219.217L214.996,237.246C215.054,237.473 215.191,237.677 215.389,237.817C215.696,238.033 216.098,238.06 216.43,237.886L223.787,234.028C223.853,233.993 223.926,233.975 224,233.975C224.074,233.975 224.147,233.993 224.213,234.028C224.213,234.028 231.57,237.886 231.57,237.886C231.902,238.06 232.304,238.033 232.611,237.817C232.918,237.601 233.077,237.231 233.025,236.859L231.809,228.31C231.795,228.212 231.802,228.111 231.832,228.017C231.859,227.928 231.905,227.846 231.968,227.779C231.968,227.779 237.731,221.614 237.731,221.614C237.981,221.346 238.065,220.962 237.948,220.614C237.832,220.266 237.535,220.01 237.173,219.946L233.026,219.217Z"/><path d="M215.846,230.74L210.293,236.293C209.903,236.683 209.903,237.317 210.293,237.707C210.683,238.097 211.317,238.097 211.707,237.707L237.707,211.707C238.097,211.317 238.097,210.683 237.707,210.293C237.317,209.903 236.683,209.903 236.293,210.293L228.582,218.003L224.896,210.556C224.728,210.216 224.38,210 224,210C223.62,210 223.272,210.216 223.104,210.556L219.308,218.224C219.269,218.304 219.213,218.374 219.143,218.427C219.081,218.475 219.01,218.507 218.935,218.52C218.935,218.52 210.827,219.946 210.827,219.946C210.465,220.01 210.168,220.266 210.052,220.614C209.935,220.962 210.019,221.346 210.269,221.614L216.032,227.779C216.095,227.846 216.141,227.928 216.168,228.017C216.198,228.111 216.205,228.212 216.191,228.31L215.846,230.74Z"/></g></g><text x="0" y="47" fill="#000000" font-size="5px" font-weight="bold" font-family="'Helvetica Neue', Helvetica, Arial-Unicode, Arial, Sans-serif">Created by AmruID</text><text x="0" y="52" fill="#000000" font-size="5px" font-weight="bold" font-family="'Helvetica Neue', Helvetica, Arial-Unicode, Arial, Sans-serif">from the Noun Project</text></svg>